# File created by Blade
# Date/Time:  Fri Jan 16 17:45:28 2015
# Frame Rate: 120.000 fps
#------------------------------------------------------
:FULLY-SPECIFIED
:DEGREES
3472
root -5.142978 35.190636 -9.548874 -0.633609 -4.030265 -6.328110
Spine -4.975707 -4.945802 8.160940
Head 9.455950 3.650351 -4.918101
LeftShoulder -22.782448 13.616170 -14.447454
LeftArm 16.015544 -5.774590 -78.353093
LeftForeArm 4.580211 -0.000000 12.561844
LeftHand 1.838997 -0.000000 -4.993697
LeftHandThumb1 -26.253704 0.000000 33.147579
RightShoulder -11.401829 3.407274 3.785131
RightArm -23.479615 55.458458 58.839957
RightForeArm 52.427451 -0.000000 12.833802
RightHand -1.889435 -0.000000 -35.451155
RightHandThumb1 -24.326973 -0.000000 -32.862282
LeftUpLeg 11.250490 13.430347 6.911468
LeftLeg -9.702949 -0.000000 0.000000
LeftFoot -15.913724 27.778565 -7.485224
LeftToeBase 23.011769 -0.000000 -0.000000
RightUpLeg 7.783537 -5.336031 4.100249
RightLeg -4.208638 -0.000000 0.000000
RightFoot -5.211825 -27.785961 4.814691
RightToeBase 13.636283 -0.000000 -0.000000
3473
root -5.136871 35.191275 -9.546048 -0.628260 -4.026122 -6.322666
Spine -4.991069 -4.928359 8.175482
Head 9.422627 3.609470 -4.953169
LeftShoulder -22.753923 13.600317 -14.437679
LeftArm 16.004477 -5.754037 -78.335662
LeftForeArm 4.545206 -0.000000 12.614845
LeftHand 1.827022 0.000000 -4.963346
LeftHandThumb1 -26.253704 0.000000 33.147579
RightShoulder -11.445729 3.343484 3.853498
RightArm -23.858957 55.954278 58.318917
RightForeArm 52.684433 -0.000000 13.962222
RightHand -1.932941 -0.000000 -37.543915
RightHandThumb1 -24.326973 -0.000000 -32.862282
LeftUpLeg 11.241111 13.438596 6.897457
LeftLeg -9.689549 -0.000000 0.000000
LeftFoot -15.934492 27.784185 -7.434889
LeftToeBase 23.155249 -0.000000 -0.000000
RightUpLeg 7.795775 -5.326580 4.088565
RightLeg -4.239999 -0.000000 0.000000
RightFoot -5.177677 -27.802831 4.892359
RightToeBase 13.467773 -0.000000 -0.000000
3474
root -5.133792 35.191781 -9.545880 -0.605295 -3.993475 -6.337827
Spine -5.021654 -4.948188 8.207660
Head 9.370909 3.593381 -4.981652
LeftShoulder -22.751469 13.597836 -14.432970
LeftArm 16.021066 -5.731794 -78.328137
LeftForeArm 4.480425 0.000000 12.657147
LeftHand 1.789685 -0.000000 -5.175608
LeftHandThumb1 -26.253704 0.000000 33.147579
RightShoulder -11.506976 3.284212 3.911647
RightArm -24.192627 56.424294 57.843588
RightForeArm 52.765074 0.000000 15.148090
RightHand -2.157889 -0.000000 -38.928154
RightHandThumb1 -24.326973 -0.000000 -32.862282
LeftUpLeg 11.195318 13.426194 6.903847
LeftLeg -9.657042 -0.000000 0.000000
LeftFoot -15.954078 27.769654 -7.401255
LeftToeBase 23.182983 -0.000000 -0.000000
RightUpLeg 7.794655 -5.300656 4.108333
RightLeg -4.279366 -0.000000 0.000000
RightFoot -5.172206 -27.875468 4.862764
RightToeBase 13.612044 -0.000000 -0.000000
3475
root -5.128770 35.192059 -9.545244 -0.584995 -3.993070 -6.340952
Spine -5.048173 -4.944654 8.238711
Head 9.326500 3.588005 -5.034346
LeftShoulder -22.738985 13.590973 -14.435096
LeftArm 16.019637 -5.705289 -78.313585
LeftForeArm 4.375175 -0.000000 12.694356
LeftHand 1.784940 -0.000000 -5.223995
LeftHandThumb1 -26.253704 0.000000 33.147579
RightShoulder -11.571395 3.217728 3.956265
RightArm -24.702468 57.140311 57.243785
RightForeArm 52.801379 -0.000000 16.484856
RightHand -1.346888 -0.000000 -38.963463
RightHandThumb1 -24.326973 -0.000000 -32.862282
LeftUpLeg 11.166639 13.449794 6.897832
LeftLeg -9.636200 -0.000000 0.000000
LeftFoot -15.966598 27.734599 -7.396610
LeftToeBase 23.184220 -0.000000 -0.000000
RightUpLeg 7.777277 -5.299338 4.105188
RightLeg -4.284699 -0.000000 0.000000
RightFoot -5.163852 -27.872505 4.882818
RightToeBase 13.610956 -0.000000 -0.000000
